<svg xmlns="http://www.w3.org/2000/svg" width="1280" height="320" viewBox="0 0 1280 320" role="img" aria-label="museopostal: Filatelia e historia postal desde Murcia"><title>museopostal: Filatelia e historia postal desde Murcia</title><defs><clipPath id="cl"><rect width="1280" height="320" rx="16"/></clipPath><pattern id="am" width="120" height="120" patternUnits="userSpaceOnUse" patternTransform="rotate(45)"><rect width="30" height="120" fill="#c8102e"/><rect x="60" width="30" height="120" fill="#1f3c88"/></pattern><path id="popb707" d="M339 252H233V0H62V702H339Q423 702 481 673Q539 644 568 593Q597 542 597 476Q597 415 569 364Q541 314 483 283Q425 252 339 252ZM423 476Q423 518 399 541Q375 564 326 564H233V388H326Q375 388 399 411Q423 434 423 476Z"/><path id="popb706" d="M33 353Q33 456 82 538Q130 620 212 666Q295 712 394 712Q493 712 576 666Q658 620 706 538Q753 456 753 353Q753 250 705 168Q657 85 575 39Q493 -7 394 -7Q295 -7 212 39Q130 85 82 168Q33 250 33 353ZM579 353Q579 446 528 502Q478 557 394 557Q309 557 258 502Q208 447 208 353Q208 260 258 204Q309 149 394 149Q478 149 528 205Q579 261 579 353Z"/><path id="popb709" d="M420 0 274 265H233V0H62V702H349Q432 702 490 673Q549 644 578 594Q607 543 607 481Q607 411 568 356Q528 301 451 278L613 0ZM233 386H339Q386 386 410 409Q433 432 433 474Q433 514 410 537Q386 560 339 560H233Z"/><path id="popb692" d="M499 124H237L195 0H16L270 702H468L722 0H541ZM455 256 368 513 282 256Z"/><path id="popb713" d="M721 702 472 0H258L9 702H191L365 172L540 702Z"/><path id="popb700" d="M233 702V0H62V702Z"/><path id="popb805" d="M33 353Q33 456 82 538Q130 620 212 666Q295 712 394 712Q493 712 576 666Q658 620 706 538Q753 456 753 353Q753 250 705 168Q657 85 575 39Q493 -7 394 -7Q295 -7 212 39Q130 85 82 168Q33 250 33 353ZM579 353Q579 446 528 502Q478 557 394 557Q309 557 258 502Q208 447 208 353Q208 260 258 204Q309 149 394 149Q478 149 528 205Q579 261 579 353ZM510 843 269 742V860L510 976Z"/><path id="popb705" d="M690 0H519L233 433V0H62V702H233L519 267V702H690Z"/><path id="dmserif154" d="M20 0V10L34 14Q53 19 60 31Q68 43 69 63V376Q69 398 62 408Q55 419 35 423L20 427V437L191 495L201 485L209 417Q242 450 284 473Q327 496 373 496Q421 496 450 476Q479 457 494 416Q533 453 578 474Q624 496 667 496Q738 496 772 462Q805 428 805 355V62Q805 23 841 13L852 10V0H621V10L631 13Q650 19 658 31Q665 43 665 63V369Q665 411 650 426Q635 442 602 442Q576 442 552 430Q527 419 500 396Q505 380 506 361Q508 342 508 321V62Q509 23 544 13L553 10V0H321V10L335 14Q354 20 362 32Q369 43 369 63V368Q369 408 354 425Q340 442 305 442Q282 442 259 430Q236 419 211 397V62Q211 23 246 13L255 10V0Z"/><path id="dmserif187" d="M201 -15Q162 -15 130 0Q97 15 78 48Q60 82 61 137L64 394Q64 417 56 427Q48 437 31 441L19 445V455L198 490L208 480L203 338V97Q203 65 222 50Q240 35 268 35Q296 35 318 43Q340 51 362 67L366 393Q366 416 359 426Q352 435 333 439L323 442V452L498 490L508 480L505 338V67Q505 45 511 33Q517 21 537 13L547 10V0L372 -10L363 49Q330 22 292 4Q253 -15 201 -15Z"/><path id="dmserif177" d="M193 -15Q144 -15 105 -4Q66 8 33 25L34 144H44L78 84Q100 44 126 24Q153 5 194 5Q242 5 272 26Q301 48 301 84Q301 117 280 138Q259 159 202 176L160 189Q99 207 64 245Q29 283 29 338Q29 404 81 450Q133 496 230 496Q269 496 304 488Q338 479 370 462L364 354H354L319 416Q300 449 282 462Q263 476 226 476Q192 476 162 457Q132 438 132 403Q132 369 158 349Q183 329 233 312L278 299Q350 277 381 238Q412 200 412 146Q412 73 354 29Q297 -15 193 -15Z"/><path id="dmserif123" d="M271 496Q336 496 382 470Q428 443 452 398Q477 352 477 294Q477 283 476 272Q475 260 472 251H174Q175 143 212 96Q250 48 324 48Q374 48 405 64Q436 80 463 111L473 102Q442 47 390 16Q339 -15 267 -15Q196 -15 141 16Q86 46 55 103Q24 160 24 239Q24 321 60 378Q96 436 152 466Q209 496 271 496ZM268 476Q239 476 218 458Q198 441 186 396Q175 352 174 271H345Q355 380 337 428Q319 476 268 476Z"/><path id="dmserif160" d="M273 -15Q197 -15 141 16Q85 48 54 106Q24 164 24 242Q24 320 56 377Q89 434 146 465Q202 496 273 496Q344 496 400 466Q456 435 488 378Q521 321 521 242Q521 163 490 106Q460 48 404 16Q349 -15 273 -15ZM273 5Q308 5 329 25Q350 45 360 96Q369 147 369 240Q369 334 360 385Q350 436 329 456Q308 476 273 476Q238 476 216 456Q195 436 186 385Q176 334 176 240Q176 147 186 96Q195 45 216 25Q238 5 273 5Z"/><path id="dmserif170" d="M20 -230V-220L32 -216Q69 -206 69 -168V376Q69 398 62 409Q54 420 34 424L20 427V437L190 495L200 485L209 454Q242 474 282 485Q323 496 366 496Q452 496 502 430Q553 365 553 243Q553 123 498 54Q442 -15 341 -15Q262 -15 208 8V-165Q208 -205 244 -215L263 -220V-230ZM293 14Q343 14 372 66Q402 118 402 239Q402 360 374 408Q346 457 293 457Q256 457 211 433V30Q249 14 293 14Z"/><path id="dmserif183" d="M210 -15Q146 -15 110 17Q75 49 75 119V461H6V471L30 475Q61 482 84 495Q106 508 128 530L210 621H220L217 481H329V461H216V101Q216 66 232 48Q247 30 271 30Q292 30 308 40Q324 51 340 69L350 59Q330 25 295 5Q260 -15 210 -15Z"/><path id="dmserif103" d="M166 -15Q108 -15 68 18Q29 51 29 113Q29 160 77 200Q125 239 228 259Q244 262 264 266Q284 269 306 273V352Q306 420 290 448Q273 475 238 475Q214 475 200 460Q186 444 182 406L180 395Q178 352 159 332Q140 312 112 312Q86 312 69 328Q52 344 52 371Q52 412 80 440Q109 468 156 482Q203 496 258 496Q347 496 396 452Q444 409 444 311V90Q444 45 486 45H508L517 37Q498 13 476 0Q453 -13 412 -13Q368 -13 342 8Q317 28 309 62Q279 30 248 8Q216 -15 166 -15ZM227 46Q247 46 264 56Q282 65 306 85V253Q296 251 286 249Q276 247 263 245Q217 233 190 204Q162 176 162 128Q162 87 181 66Q200 46 227 46Z"/><path id="dmserif148" d="M23 0V10L35 14Q71 26 71 64V599Q71 619 63 630Q55 640 35 645L22 648V658L205 701L217 692L213 552V210Q213 173 214 136Q214 100 214 64Q214 44 222 32Q230 19 249 13L262 10V0Z"/><path id="popm697" d="M484 695V602H189V397H419V304H189V0H75V695Z"/><path id="popm732" d="M60 697Q60 728 81 749Q102 770 133 770Q163 770 184 749Q205 728 205 697Q205 666 184 645Q163 624 133 624Q102 624 81 645Q60 666 60 697ZM189 551V0H75V551Z"/><path id="popm735" d="M189 740V0H75V740Z"/><path id="popm724" d="M297 560Q362 560 410 534Q459 509 488 471V551H603V0H488V82Q459 43 409 17Q359 -9 295 -9Q224 -9 165 28Q106 64 72 130Q37 195 37 278Q37 361 72 425Q106 489 166 524Q225 560 297 560ZM321 461Q277 461 239 440Q201 418 178 376Q154 335 154 278Q154 221 178 178Q201 135 240 112Q278 90 321 90Q365 90 403 112Q441 134 464 176Q488 219 488 276Q488 333 464 375Q441 417 403 439Q365 461 321 461Z"/><path id="popm743" d="M208 458V153Q208 122 222 108Q237 95 272 95H342V0H252Q175 0 134 36Q93 72 93 153V458H28V551H93V688H208V551H342V458Z"/><path id="popm728" d="M576 233H155Q160 167 204 127Q248 87 312 87Q404 87 442 164H565Q540 88 474 40Q409 -9 312 -9Q233 -9 170 26Q108 62 72 126Q37 191 37 276Q37 361 72 426Q106 490 168 525Q231 560 312 560Q390 560 451 526Q512 492 546 430Q580 369 580 289Q580 258 576 233ZM461 325Q460 388 416 426Q372 464 307 464Q248 464 206 426Q164 389 156 325Z"/><path id="popm731" d="M579 325V0H466V308Q466 382 429 422Q392 461 328 461Q264 461 226 422Q189 382 189 308V0H75V740H189V487Q218 522 262 541Q307 560 360 560Q423 560 472 533Q522 506 550 453Q579 400 579 325Z"/><path id="popm742" d="M45 169H163Q166 134 196 110Q227 87 273 87Q321 87 348 106Q374 124 374 153Q374 184 344 199Q315 214 251 232Q189 249 150 265Q111 281 82 314Q54 347 54 401Q54 445 80 482Q106 518 154 539Q203 560 266 560Q360 560 418 512Q475 465 479 383H365Q362 420 335 442Q308 464 262 464Q217 464 193 447Q169 430 169 402Q169 380 185 365Q201 350 224 342Q247 333 292 320Q352 304 390 288Q429 271 457 239Q485 207 486 154Q486 107 460 70Q434 33 386 12Q339 -9 275 -9Q210 -9 158 14Q107 38 77 78Q47 119 45 169Z"/><path id="popm738" d="M38 276Q38 360 75 425Q112 490 176 525Q240 560 319 560Q398 560 462 525Q526 490 563 425Q600 360 600 276Q600 192 562 127Q524 62 458 26Q393 -9 314 -9Q236 -9 173 26Q110 62 74 126Q38 191 38 276ZM483 276Q483 336 460 378Q437 419 399 440Q361 461 317 461Q273 461 236 440Q198 419 176 378Q154 336 154 276Q154 187 200 138Q245 90 314 90Q358 90 396 111Q435 132 459 174Q483 216 483 276Z"/><path id="popm741" d="M354 560V442H325Q258 442 224 408Q189 374 189 290V0H75V551H189V471Q214 513 256 536Q297 560 354 560Z"/><path id="popm739" d="M381 560Q453 560 512 524Q572 489 606 425Q640 361 640 278Q640 195 606 130Q572 64 512 28Q453 -9 381 -9Q318 -9 269 16Q220 42 189 80V-262H75V551H189V470Q218 508 268 534Q318 560 381 560ZM356 461Q313 461 274 439Q236 417 212 375Q189 333 189 276Q189 219 212 176Q236 134 274 112Q313 90 356 90Q400 90 438 112Q477 135 500 178Q524 221 524 278Q524 335 500 376Q477 418 438 440Q400 461 356 461Z"/><path id="popm727" d="M298 560Q352 560 404 536Q457 513 488 474V740H603V0H488V83Q460 43 410 17Q361 -9 297 -9Q225 -9 166 28Q106 64 72 130Q37 195 37 278Q37 361 72 425Q106 489 166 524Q225 560 298 560ZM321 461Q277 461 239 440Q201 418 178 376Q154 335 154 278Q154 221 178 178Q201 135 240 112Q278 90 321 90Q365 90 403 112Q441 134 464 176Q488 219 488 276Q488 333 464 375Q441 417 403 439Q365 461 321 461Z"/><path id="popm704" d="M807 695V0H693V476L481 0H402L189 476V0H75V695H198L442 150L685 695Z"/><path id="popm744" d="M574 551V0H460V65Q433 31 390 12Q346 -8 297 -8Q232 -8 180 19Q129 46 100 99Q70 152 70 227V551H183V244Q183 170 220 130Q257 91 321 91Q385 91 422 130Q460 170 460 244V551Z"/><path id="popm726" d="M307 560Q407 560 472 512Q538 465 561 377H438Q423 418 390 441Q357 464 307 464Q237 464 196 414Q154 365 154 276Q154 187 196 137Q237 87 307 87Q406 87 438 174H561Q537 90 471 40Q405 -9 307 -9Q228 -9 167 26Q106 62 72 126Q37 191 37 276Q37 361 72 426Q106 490 167 525Q228 560 307 560Z"/></defs><g clip-path="url(#cl)"><rect width="1280" height="320" fill="#fbf6ea"/><rect width="1280" height="320" fill="url(#am)"/><rect x="120" y="40" width="1040" height="240" rx="6" fill="#fbf6ea"/><rect x="170" y="70" width="190" height="48" fill="#1f3c88"/><g transform="translate(187.3 104) scale(0.02500 -0.02500)" fill="#ffffff"><use href="#popb707" x="0"/><use href="#popb706" x="704"/><use href="#popb709" x="1570"/><use href="#popb692" x="2594"/><use href="#popb713" x="3411"/><use href="#popb700" x="4221"/><use href="#popb805" x="4596"/><use href="#popb705" x="5462"/></g><rect x="1010" y="66" width="110" height="130" fill="#c8102e"/><circle cx="1010" cy="66" r="5" fill="#fbf6ea"/><circle cx="1010" cy="196" r="5" fill="#fbf6ea"/><circle cx="1028.3" cy="66" r="5" fill="#fbf6ea"/><circle cx="1028.3" cy="196" r="5" fill="#fbf6ea"/><circle cx="1046.7" cy="66" r="5" fill="#fbf6ea"/><circle cx="1046.7" cy="196" r="5" fill="#fbf6ea"/><circle cx="1065" cy="66" r="5" fill="#fbf6ea"/><circle cx="1065" cy="196" r="5" fill="#fbf6ea"/><circle cx="1083.3" cy="66" r="5" fill="#fbf6ea"/><circle cx="1083.3" cy="196" r="5" fill="#fbf6ea"/><circle cx="1101.7" cy="66" r="5" fill="#fbf6ea"/><circle cx="1101.7" cy="196" r="5" fill="#fbf6ea"/><circle cx="1120" cy="66" r="5" fill="#fbf6ea"/><circle cx="1120" cy="196" r="5" fill="#fbf6ea"/><circle cx="1010" cy="66" r="5" fill="#fbf6ea"/><circle cx="1120" cy="66" r="5" fill="#fbf6ea"/><circle cx="1010" cy="82.2" r="5" fill="#fbf6ea"/><circle cx="1120" cy="82.2" r="5" fill="#fbf6ea"/><circle cx="1010" cy="98.5" r="5" fill="#fbf6ea"/><circle cx="1120" cy="98.5" r="5" fill="#fbf6ea"/><circle cx="1010" cy="114.8" r="5" fill="#fbf6ea"/><circle cx="1120" cy="114.8" r="5" fill="#fbf6ea"/><circle cx="1010" cy="131" r="5" fill="#fbf6ea"/><circle cx="1120" cy="131" r="5" fill="#fbf6ea"/><circle cx="1010" cy="147.2" r="5" fill="#fbf6ea"/><circle cx="1120" cy="147.2" r="5" fill="#fbf6ea"/><circle cx="1010" cy="163.5" r="5" fill="#fbf6ea"/><circle cx="1120" cy="163.5" r="5" fill="#fbf6ea"/><circle cx="1010" cy="179.8" r="5" fill="#fbf6ea"/><circle cx="1120" cy="179.8" r="5" fill="#fbf6ea"/><circle cx="1010" cy="196" r="5" fill="#fbf6ea"/><circle cx="1120" cy="196" r="5" fill="#fbf6ea"/><g transform="translate(1065 188) scale(0.3)" fill="#fbf6ea"><rect x="-52" y="-120" width="104" height="120"/><rect x="-46" y="-210" width="92" height="92"/><rect x="-38" y="-282" width="76" height="74"/><path d="M-30 -282V-300C-30 -350 30 -350 30 -300V-282Z"/><rect x="-7" y="-372" width="14" height="30"/><path d="M-2 -372V-392h4v20zM-9 -384h18v4h-18z"/><path d="M-60 -120h120v8h-120zM-54 -210h108v8h-108zM-44 -282h88v8h-88z"/></g><g transform="translate(1065 188) scale(0.3)" fill="#c8102e"><path d="M-26 -150v-28a10 10 0 0 1 20 0v28zM6 -150v-28a10 10 0 0 1 20 0v28z"/><path d="M-18 -226v-30a18 18 0 0 1 36 0v30z"/><path d="M-26 -50v-34a26 26 0 0 1 52 0v34z"/></g><g transform="translate(170 214) scale(0.09200 -0.09200)" fill="#1f2a44"><use href="#dmserif154" x="0"/><use href="#dmserif187" x="866"/><use href="#dmserif177" x="1439"/><use href="#dmserif123" x="1875"/><use href="#dmserif160" x="2382"/><use href="#dmserif170" x="2917"/><use href="#dmserif160" x="3501"/><use href="#dmserif177" x="4046"/><use href="#dmserif183" x="4482"/><use href="#dmserif103" x="4843"/><use href="#dmserif148" x="5361"/></g><g transform="translate(172 258) scale(0.02700 -0.02700)" fill="#c8102e"><use href="#popm697" x="0"/><use href="#popm732" x="515"/><use href="#popm735" x="779"/><use href="#popm724" x="1043"/><use href="#popm743" x="1721"/><use href="#popm728" x="2093"/><use href="#popm735" x="2710"/><use href="#popm732" x="2974"/><use href="#popm724" x="3238"/><use href="#popm728" x="4176"/><use href="#popm731" x="5053"/><use href="#popm732" x="5702"/><use href="#popm742" x="5966"/><use href="#popm743" x="6500"/><use href="#popm738" x="6872"/><use href="#popm741" x="7510"/><use href="#popm732" x="7894"/><use href="#popm724" x="8158"/><use href="#popm739" x="9096"/><use href="#popm738" x="9774"/><use href="#popm742" x="10412"/><use href="#popm743" x="10946"/><use href="#popm724" x="11318"/><use href="#popm735" x="11996"/><use href="#popm727" x="12520"/><use href="#popm728" x="13198"/><use href="#popm742" x="13815"/><use href="#popm727" x="14349"/><use href="#popm728" x="15027"/><use href="#popm704" x="15904"/><use href="#popm744" x="16786"/><use href="#popm741" x="17435"/><use href="#popm726" x="17819"/><use href="#popm732" x="18419"/><use href="#popm724" x="18683"/></g></g></svg>